<svg width="172" height="44" viewBox="0 0 100 34" fill="none" xmlns="http://www.w3.org/2000/svg">
<g clip-path="url(#clip0_43915_100)">
<g filter="url(#filter0_d_43915_100)">
<path d="M38.2735 24C37.0235 21.3 35.8152 18.475 34.6485 15.525C33.4985 12.575 32.4235 9.625 31.4235 6.675H34.8985C35.2985 7.84167 35.7069 9.03333 36.1235 10.25C36.5402 11.4667 36.9569 12.6667 37.3735 13.85C37.7902 15.0167 38.2069 16.15 38.6235 17.25C39.0402 18.35 39.4485 19.3583 39.8485 20.275C40.2319 19.3583 40.6319 18.3583 41.0485 17.275C41.4652 16.175 41.8819 15.0333 42.2985 13.85C42.7319 12.6667 43.1569 11.4667 43.5735 10.25C43.9902 9.03333 44.3902 7.84167 44.7735 6.675H48.1485C47.1319 9.625 46.0485 12.575 44.8985 15.525C43.7485 18.475 42.5485 21.3 41.2985 24H38.2735ZM53.539 24H50.514V10.925H53.539V24ZM53.864 7.1C53.864 7.66667 53.6806 8.11667 53.314 8.45C52.9473 8.78333 52.514 8.95 52.014 8.95C51.4973 8.95 51.0556 8.78333 50.689 8.45C50.3223 8.11667 50.139 7.66667 50.139 7.1C50.139 6.51667 50.3223 6.05833 50.689 5.725C51.0556 5.39167 51.4973 5.225 52.014 5.225C52.514 5.225 52.9473 5.39167 53.314 5.725C53.6806 6.05833 53.864 6.51667 53.864 7.1ZM60.0231 17.425C60.0231 18.7583 60.3398 19.8083 60.9731 20.575C61.6065 21.325 62.4815 21.7 63.5981 21.7C64.0815 21.7 64.4898 21.6833 64.8231 21.65C65.1731 21.6 65.4565 21.55 65.6731 21.5V14C65.4065 13.8167 65.0481 13.65 64.5981 13.5C64.1648 13.3333 63.6981 13.25 63.1981 13.25C62.0981 13.25 61.2898 13.625 60.7731 14.375C60.2731 15.125 60.0231 16.1417 60.0231 17.425ZM68.6981 23.6C68.0981 23.7833 67.3398 23.95 66.4231 24.1C65.5231 24.25 64.5731 24.325 63.5731 24.325C62.5398 24.325 61.6148 24.1667 60.7981 23.85C59.9815 23.5333 59.2815 23.0833 58.6981 22.5C58.1315 21.9 57.6898 21.1833 57.3731 20.35C57.0731 19.5 56.9231 18.55 56.9231 17.5C56.9231 16.4667 57.0481 15.5333 57.2981 14.7C57.5648 13.85 57.9481 13.125 58.4481 12.525C58.9481 11.925 59.5565 11.4667 60.2731 11.15C60.9898 10.8167 61.8148 10.65 62.7481 10.65C63.3815 10.65 63.9398 10.725 64.4231 10.875C64.9065 11.025 65.3231 11.1917 65.6731 11.375V5.1L68.6981 4.6V23.6ZM77.3407 24.25C76.4407 24.2333 75.6907 24.1333 75.0907 23.95C74.5074 23.7667 74.0407 23.5083 73.6907 23.175C73.3407 22.825 73.0907 22.4 72.9407 21.9C72.8074 21.3833 72.7407 20.8 72.7407 20.15V5.1L75.7657 4.6V19.575C75.7657 19.9417 75.7907 20.25 75.8407 20.5C75.9074 20.75 76.0157 20.9667 76.1657 21.15C76.3157 21.3167 76.5157 21.45 76.7657 21.55C77.0324 21.6333 77.3657 21.7 77.7657 21.75L77.3407 24.25ZM91.1376 10.925C89.7876 15.8917 88.2209 20.3917 86.4376 24.425C86.1043 25.175 85.7626 25.8167 85.4126 26.35C85.0626 26.8833 84.6709 27.325 84.2376 27.675C83.8043 28.025 83.3209 28.275 82.7876 28.425C82.2543 28.5917 81.6376 28.675 80.9376 28.675C80.4709 28.675 80.0043 28.625 79.5376 28.525C79.0876 28.425 78.7459 28.3167 78.5126 28.2L79.0626 25.775C79.6626 26.0083 80.2543 26.125 80.8376 26.125C81.6209 26.125 82.2293 25.9333 82.6626 25.55C83.1126 25.1833 83.5043 24.6083 83.8376 23.825C82.8876 21.9917 81.9709 19.9917 81.0876 17.825C80.2209 15.6583 79.4459 13.3583 78.7626 10.925H81.9876C82.1543 11.625 82.3543 12.3833 82.5876 13.2C82.8376 14.0167 83.1043 14.85 83.3876 15.7C83.6709 16.5333 83.9709 17.3667 84.2876 18.2C84.6043 19.0333 84.9209 19.8083 85.2376 20.525C85.7709 19.0417 86.2709 17.4667 86.7376 15.8C87.2043 14.1167 87.6293 12.4917 88.0126 10.925H91.1376Z" fill="white"/>
</g>
<g clip-path="url(#clip1_43915_100)">
<path d="M22.2812 9.70312C22.9236 9.70312 23.5396 9.48088 23.9938 9.0853C24.448 8.68972 24.7031 8.15319 24.7031 7.59375C24.7031 7.03431 24.448 6.49778 23.9938 6.10219C23.5396 5.70661 22.9236 5.48437 22.2812 5.48437C22.5549 5.17184 22.7225 4.79871 22.7648 4.40739C22.8072 4.01606 22.7226 3.62224 22.5208 3.27067C22.319 2.91911 22.008 2.62391 21.6231 2.41862C21.2383 2.21333 20.795 2.10619 20.3438 2.10937C20.1677 2.10858 19.9922 2.12556 19.8206 2.16C19.7328 1.75723 19.5116 1.38565 19.1843 1.09103C18.857 0.796419 18.4378 0.591648 17.9785 0.501954C17.5192 0.412261 17.0399 0.441566 16.5994 0.586256C16.159 0.730947 15.7769 0.984702 15.5 1.31625C15.1981 0.965288 14.7781 0.705014 14.2984 0.571636C13.8187 0.438259 13.3033 0.43841 12.8237 0.572069C12.3441 0.705728 11.9243 0.966249 11.6227 1.31739C11.321 1.66853 11.1525 2.09282 11.1406 2.53125C10.6771 2.20803 10.093 2.04507 9.50009 2.07357C8.90721 2.10207 8.34723 2.32003 7.92736 2.68572C7.50749 3.05142 7.25724 3.53914 7.22451 4.05552C7.19179 4.5719 7.37889 5.08066 7.75 5.48437C7.10768 5.48437 6.49167 5.70661 6.03748 6.10219C5.58329 6.49778 5.32813 7.03431 5.32812 7.59375C5.32813 8.15319 5.58329 8.68972 6.03748 9.0853C6.49167 9.48088 7.10768 9.70312 7.75 9.70312H22.2812Z" fill="#FEEA9D"/>
<path d="M21.7485 10.1925C22.527 10.1651 23.2647 9.88173 23.8129 9.39952C24.3612 8.91731 24.6793 8.27207 24.7032 7.59375C24.608 7.06408 24.3222 6.57441 23.8869 6.19531C23.4516 5.81622 22.8894 5.56728 22.2813 5.48438C22.555 5.17185 22.7225 4.79872 22.7649 4.40739C22.8072 4.01606 22.7227 3.62224 22.5208 3.27068C22.319 2.91911 22.008 2.62391 21.6232 2.41862C21.2383 2.21333 20.7951 2.10619 20.3438 2.10937C20.1678 2.10858 19.9922 2.12557 19.8207 2.16C19.7328 1.75724 19.5116 1.38565 19.1843 1.09103C18.857 0.796419 18.4379 0.591648 17.9786 0.501954C17.5193 0.412261 17.0399 0.441566 16.5995 0.586257C16.1591 0.730947 15.7769 0.984702 15.5 1.31625C15.1981 0.965288 14.7781 0.705014 14.2984 0.571636C13.8188 0.438259 13.3033 0.43841 12.8237 0.572069C12.3442 0.705728 11.9244 0.966249 11.6227 1.31739C11.3211 1.66853 11.1526 2.09282 11.1407 2.53125C10.6771 2.20803 10.093 2.04507 9.50013 2.07357C8.90725 2.10207 8.34727 2.32003 7.9274 2.68573C7.50753 3.05142 7.25728 3.53914 7.22455 4.05552C7.19183 4.57191 7.37893 5.08066 7.75004 5.48438C7.13394 5.55006 6.5608 5.79342 6.1219 6.17569C5.683 6.55796 5.40359 7.05715 5.32816 7.59375C5.31847 8.198 5.5573 8.78534 6.00149 9.24958C6.44567 9.71382 7.0659 10.0243 7.75004 10.125" stroke="#FEE27D" stroke-linecap="round" stroke-linejoin="round"/>
<path d="M23.6375 10.5469L21.7968 26.5781H8.23435L6.40342 10.6312C6.38984 10.5136 6.40481 10.3947 6.44738 10.2824C6.48994 10.1701 6.55914 10.0668 6.65049 9.97929C6.74184 9.89177 6.85329 9.82196 6.97762 9.77439C7.10195 9.72681 7.23637 9.70253 7.37217 9.70312H22.7656C23.0054 9.72411 23.2276 9.82219 23.3888 9.9782C23.55 10.1342 23.6387 10.337 23.6375 10.5469Z" fill="#AF13C8"/>
<path d="M23.6375 10.5469L21.7969 26.5781H20.8281L22.7656 9.70312C23.0054 9.72411 23.2276 9.82219 23.3888 9.97821C23.55 10.1342 23.6387 10.337 23.6375 10.5469Z" fill="#817A7B"/>
<path d="M18.8906 26.5781H11.1406L9.20312 9.70312H20.8281L18.8906 26.5781Z" fill="#FEE27D"/>
<path d="M15.9844 26.5781H14.0469L13.0781 9.70312H16.9531L15.9844 26.5781Z" fill="#AF13C8"/>
<path d="M15.0156 22.3594C19.2958 22.3594 22.7656 20.2817 22.7656 17.7188C22.7656 15.1558 19.2958 13.0781 15.0156 13.0781C10.7354 13.0781 7.26562 15.1558 7.26562 17.7188C7.26562 20.2817 10.7354 22.3594 15.0156 22.3594Z" fill="white"/>
<path d="M15.0156 13.0781H14.5312C18.5806 13.23 21.7969 15.2381 21.7969 17.7019C21.7969 20.1656 18.5806 22.1738 14.5312 22.3256H15.0156C19.2975 22.3256 22.7656 20.25 22.7656 17.685C22.7656 15.12 19.2975 13.0781 15.0156 13.0781Z" fill="#E1E1E3"/>
<path d="M15.4322 8.01562C15.3037 8.01562 15.1805 7.97118 15.0897 7.89206C14.9988 7.81294 14.9478 7.70564 14.9478 7.59375C14.9478 7.28156 14.6281 6.98625 14.1341 6.83438C14.0631 6.81721 13.9979 6.78562 13.9437 6.7422C13.8896 6.69879 13.848 6.64479 13.8225 6.58466C13.7969 6.52452 13.7881 6.45997 13.7968 6.3963C13.8055 6.33263 13.8315 6.27167 13.8725 6.21844C13.9419 6.12552 13.9789 6.01709 13.9791 5.90625C13.9791 5.45063 13.3203 5.0625 12.5259 5.0625C11.7316 5.0625 11.0728 5.45063 11.0728 5.90625C11.077 5.99187 11.1035 6.07555 11.1503 6.15094C11.1928 6.21507 11.2152 6.28782 11.2152 6.36187C11.2152 6.43593 11.1928 6.50868 11.1503 6.57281C11.0938 6.63829 11.0182 6.68931 10.9312 6.72049C10.8443 6.75167 10.7493 6.76186 10.6562 6.75C9.87156 6.75 9.20312 7.13812 9.20312 7.59375C9.20312 7.70564 9.15209 7.81294 9.06126 7.89206C8.97042 7.97118 8.84721 8.01562 8.71875 8.01562C8.59029 8.01562 8.46708 7.97118 8.37624 7.89206C8.28541 7.81294 8.23438 7.70564 8.23438 7.59375C8.27425 7.15777 8.49118 6.74844 8.84626 6.43918C9.20133 6.12992 9.67131 5.94098 10.1719 5.90625C10.2448 5.40606 10.5383 4.95021 10.9904 4.63524C11.4424 4.32027 12.0175 4.17089 12.5937 4.21875C13.17 4.17089 13.7451 4.32027 14.1971 4.63524C14.6492 4.95021 14.9427 5.40606 15.0156 5.90625C15.0304 6.00991 15.0304 6.11477 15.0156 6.21844C15.3023 6.35262 15.543 6.55061 15.7131 6.79221C15.8833 7.03381 15.9769 7.31038 15.9844 7.59375C15.9851 7.65449 15.9707 7.71464 15.9422 7.7701C15.9137 7.82555 15.8719 7.875 15.8194 7.91506C15.767 7.95511 15.7053 7.98484 15.6384 8.00219C15.5716 8.01955 15.5012 8.02413 15.4322 8.01562Z" fill="#FEE27D"/>
<path d="M20.3438 8.20125C20.2832 8.2132 20.2203 8.2132 20.1597 8.20125C20.0898 8.18415 20.0253 8.15329 19.9712 8.11106C19.9171 8.06883 19.8748 8.01636 19.8477 7.95767C19.8206 7.89898 19.8093 7.83566 19.8146 7.77256C19.82 7.70947 19.842 7.6483 19.8788 7.59375C19.9283 7.41344 19.9141 7.22431 19.838 7.05115C19.7619 6.878 19.6276 6.72891 19.4525 6.62344C19.3975 6.58304 19.3532 6.53267 19.3229 6.47583C19.2925 6.41899 19.2768 6.35706 19.2768 6.29437C19.2768 6.23169 19.2925 6.16976 19.3229 6.11292C19.3532 6.05608 19.3975 6.00571 19.4525 5.96531C19.5635 5.90464 19.6512 5.8165 19.7044 5.71219C19.8981 5.29875 19.4622 4.71656 18.7356 4.44656C18.3334 4.28634 17.8763 4.26523 17.4569 4.3875C17.2696 4.45163 17.1173 4.57527 17.0306 4.73344C16.9937 4.81108 16.974 4.8941 16.9725 4.97812C16.9783 5.04711 16.9646 5.11628 16.9325 5.17955C16.9004 5.24281 16.8509 5.29824 16.7884 5.34094C16.7245 5.38361 16.6492 5.41142 16.5696 5.42176C16.4899 5.43209 16.4085 5.4246 16.3331 5.4H16.2169C15.9556 5.27426 15.656 5.22215 15.3594 5.25086C15.0627 5.27957 14.7835 5.38769 14.5603 5.56031C14.4817 5.64799 14.3672 5.70575 14.2408 5.72148C14.1143 5.73721 13.9858 5.70969 13.8822 5.64469C13.7809 5.57631 13.7149 5.47576 13.6985 5.36506C13.6822 5.25436 13.7169 5.14253 13.795 5.05406C14.0744 4.76935 14.4442 4.56297 14.8579 4.46087C15.2716 4.35878 15.7107 4.36555 16.12 4.48031C16.2113 4.29781 16.3443 4.13339 16.5108 3.99705C16.6773 3.8607 16.874 3.75528 17.0888 3.68719C17.7466 3.47572 18.4733 3.49692 19.1134 3.74625C19.6579 3.88971 20.1187 4.20908 20.4015 4.63892C20.6842 5.06875 20.7676 5.5765 20.6344 6.05812C20.5847 6.15643 20.523 6.24978 20.4503 6.33656C20.6622 6.55673 20.8027 6.82224 20.8572 7.10559C20.9117 7.38893 20.8783 7.67982 20.7603 7.94812C20.7255 8.02035 20.6679 8.08248 20.5942 8.1273C20.5204 8.17211 20.4336 8.19775 20.3438 8.20125Z" fill="#FEE27D"/>
<path d="M11.625 16.0312H18.4062V19.4062H11.625V16.0312Z" fill="#AF13C8"/>
<path d="M17.4375 16.0312H18.4062V19.4062H17.4375V16.0312Z" fill="#817A7B"/>
<path d="M23.0369 5.15631C23.1798 4.85987 23.2523 4.54127 23.25 4.21974C23.2506 3.87491 23.1704 3.53361 23.0141 3.21676C22.8579 2.89992 22.629 2.61422 22.3414 2.37719C22.0538 2.14017 21.7137 1.95682 21.3419 1.83839C20.97 1.71996 20.5743 1.66895 20.1791 1.68849C20.0194 1.29677 19.7515 0.945321 19.3989 0.665184C19.0463 0.385047 18.6199 0.184847 18.1575 0.0822677C17.695 -0.0203117 17.2106 -0.0221134 16.7471 0.0770219C16.2836 0.176157 15.8553 0.373178 15.5 0.650682C15.1305 0.363948 14.6832 0.164128 14.2002 0.0701553C13.7173 -0.0238173 13.2148 -0.00882935 12.7403 0.113699C12.2659 0.236227 11.8352 0.462237 11.4892 0.770312C11.1431 1.07839 10.8931 1.45832 10.7628 1.87412C10.4225 1.7496 10.0567 1.68645 9.6875 1.68849C8.91672 1.68849 8.1775 1.95518 7.63247 2.42988C7.08745 2.90458 6.78125 3.54841 6.78125 4.21974C6.77887 4.53854 6.8514 4.85439 6.99438 5.14787C6.37669 5.29273 5.83114 5.61103 5.4423 6.05343C5.05347 6.49583 4.84307 7.0376 4.84375 7.59474C4.84996 7.94431 4.93924 8.28898 5.10597 8.607C5.2727 8.92503 5.51327 9.20952 5.8125 9.44256L7.79844 27.001H22.2813L24.2188 9.44256C24.5953 9.13523 24.8711 8.74613 25.0178 8.31523C25.1645 7.88434 25.1768 7.42719 25.0535 6.99077C24.9302 6.55434 24.6758 6.15438 24.3162 5.83198C23.9567 5.50958 23.5051 5.27637 23.0078 5.15631H23.0369ZM6.82969 10.126H8.76719L9.2225 14.1254C8.52301 14.5407 7.92668 15.0744 7.46906 15.6947L6.82969 10.126ZM8.71875 26.1572L8.06 20.3607C8.65003 20.9404 9.35984 21.4183 10.1525 21.7697L10.6563 26.1572H8.71875ZM11.625 26.1572L11.1697 22.1747C11.885 22.4137 12.6293 22.5807 13.3881 22.6726L13.5625 26.1572H11.625ZM15.5 26.1572H14.5313L14.3278 22.7822H15.7422L15.5 26.1572ZM18.4063 26.1572H16.4688L16.6625 22.6726C17.4213 22.5807 18.1656 22.4137 18.8809 22.1747L18.4063 26.1572ZM21.3125 26.1572H19.375L19.8788 21.7697C20.6714 21.4183 21.3812 20.9404 21.9713 20.3607L21.3125 26.1572ZM15.0156 21.9385C11.005 21.9385 7.75 20.0485 7.75 17.7197C7.75 15.391 11.005 13.501 15.0156 13.501C19.0263 13.501 22.2813 15.391 22.2813 17.7197C22.2813 20.0485 19.0263 21.9385 15.0156 21.9385ZM9.73594 10.126H12.6422L12.8069 12.8513C11.8902 13.0067 11.0031 13.2737 10.1719 13.6444L9.73594 10.126ZM13.6109 10.126H16.4688L16.3234 12.7247C15.4741 12.6347 14.6153 12.6347 13.7659 12.7247L13.6109 10.126ZM17.2728 12.8513L17.4375 10.126H20.3438L19.9369 13.6444C19.0904 13.2699 18.1868 13.0028 17.2534 12.8513H17.2728ZM22.5816 15.6947C22.1239 15.0744 21.5276 14.5407 20.8281 14.1254L21.3125 10.126H23.25L22.5816 15.6947ZM22.2813 9.28224H7.75C7.23615 9.28224 6.74333 9.10445 6.37998 8.78799C6.01663 8.47152 5.8125 8.0423 5.8125 7.59474C5.8125 7.14719 6.01663 6.71797 6.37998 6.4015C6.74333 6.08503 7.23615 5.90724 7.75 5.90724C7.84078 5.9074 7.92979 5.88534 8.00687 5.84357C8.08395 5.80179 8.146 5.742 8.18594 5.67099C8.2262 5.60133 8.24302 5.52316 8.23445 5.44553C8.22588 5.36789 8.19227 5.29395 8.1375 5.23224C7.88597 4.94014 7.75 4.58487 7.75 4.21974C7.75 3.77219 7.95413 3.34297 8.31748 3.0265C8.68083 2.71003 9.17365 2.53224 9.6875 2.53224C10.1078 2.53467 10.5158 2.65609 10.85 2.87818C10.9255 2.91935 11.0128 2.94118 11.1019 2.94118C11.191 2.94118 11.2782 2.91935 11.3538 2.87818C11.4296 2.84609 11.4946 2.79728 11.5422 2.73661C11.5897 2.67593 11.6183 2.60549 11.625 2.53224C11.627 2.17879 11.7564 1.83481 11.9949 1.54884C12.2335 1.26287 12.5691 1.04936 12.9544 0.938421C13.3397 0.827486 13.7553 0.824732 14.1425 0.930548C14.5297 1.03636 14.869 1.24541 15.1125 1.52818C15.1588 1.57911 15.2176 1.62026 15.2847 1.64856C15.3519 1.67685 15.4254 1.69154 15.5 1.69154C15.5746 1.69154 15.6481 1.67685 15.7153 1.64856C15.7824 1.62026 15.8413 1.57911 15.8875 1.52818C16.067 1.31705 16.3005 1.14532 16.5696 1.02667C16.8387 0.908019 17.1359 0.845724 17.4375 0.844744C17.8977 0.838567 18.3453 0.975262 18.7004 1.23035C19.0554 1.48544 19.2945 1.84227 19.375 2.23693C19.3874 2.29339 19.4126 2.34711 19.4492 2.39493C19.4858 2.44276 19.5331 2.48371 19.5881 2.51537C19.6412 2.54737 19.7014 2.56919 19.7649 2.57937C19.8284 2.58956 19.8936 2.58787 19.9563 2.57443C20.0838 2.55081 20.2134 2.5367 20.3438 2.53224C20.8576 2.53224 21.3504 2.71003 21.7138 3.0265C22.0771 3.34297 22.2813 3.77219 22.2813 4.21974C22.2785 4.58583 22.1391 4.9412 21.8841 5.23224C21.8345 5.29726 21.8081 5.37357 21.8081 5.45162C21.8081 5.52967 21.8345 5.60598 21.8841 5.67099C21.9209 5.73709 21.9769 5.79365 22.0466 5.83509C22.1163 5.87653 22.1972 5.9014 22.2813 5.90724C22.7951 5.90724 23.2879 6.08503 23.6513 6.4015C24.0146 6.71797 24.2188 7.14719 24.2188 7.59474C24.2188 8.0423 24.0146 8.47152 23.6513 8.78799C23.2879 9.10445 22.7951 9.28224 22.2813 9.28224ZM20.6344 6.05912C20.789 5.57366 20.7208 5.05486 20.4442 4.6124C20.1676 4.16994 19.7043 3.83851 19.1522 3.68818C18.5121 3.43885 17.7853 3.41765 17.1275 3.62912C16.9127 3.69721 16.7161 3.80263 16.5496 3.93898C16.383 4.07532 16.2501 4.23974 16.1588 4.42224C15.8338 4.34134 15.4927 4.32208 15.1585 4.36574C14.8242 4.40941 14.5047 4.51499 14.2213 4.67537C13.7301 4.36345 13.1335 4.20312 12.5259 4.21974C11.9497 4.17189 11.3746 4.32126 10.9226 4.63623C10.4705 4.95121 10.177 5.40705 10.1041 5.90724C9.6035 5.94198 9.13352 6.13092 8.77845 6.44018C8.42338 6.74943 8.20644 7.15877 8.16656 7.59474C8.16656 7.70663 8.2176 7.81394 8.30843 7.89306C8.39927 7.97217 8.52248 8.01662 8.65094 8.01662C8.7794 8.01662 8.90261 7.97217 8.99344 7.89306C9.08428 7.81394 9.13531 7.70663 9.13531 7.59474C9.13531 7.13912 9.80375 6.75099 10.5884 6.75099V6.37974L10.6563 6.75099C10.7407 6.75302 10.8245 6.7372 10.9004 6.70487C10.9763 6.67254 11.0421 6.62468 11.0922 6.56537C11.1347 6.50124 11.1571 6.42849 11.1571 6.35443C11.1571 6.28038 11.1347 6.20763 11.0922 6.14349C11.0667 6.06682 11.06 5.9863 11.0728 5.90724C11.0728 5.45162 11.7413 5.06349 12.5259 5.06349C13.3106 5.06349 13.9791 5.45162 13.9791 5.90724C13.9789 6.01809 13.9419 6.12652 13.8725 6.21943C13.8315 6.27267 13.8055 6.33362 13.7968 6.39729C13.7881 6.46096 13.7969 6.52552 13.8225 6.58565C13.848 6.64579 13.8896 6.69978 13.9437 6.7432C13.9979 6.78661 14.0631 6.8182 14.1341 6.83537C14.6281 6.98724 14.9478 7.28256 14.9478 7.59474C14.9478 7.70663 14.9988 7.81394 15.0897 7.89306C15.1805 7.97217 15.3037 8.01662 15.4322 8.01662C15.5607 8.01662 15.6839 7.97217 15.7747 7.89306C15.8655 7.81394 15.9166 7.70663 15.9166 7.59474C15.9091 7.31138 15.8155 7.0348 15.6453 6.7932C15.4751 6.5516 15.2345 6.35362 14.9478 6.21943C14.9626 6.11577 14.9626 6.01091 14.9478 5.90724C14.9453 5.7274 14.9025 5.54971 14.8219 5.38412C15.0452 5.28939 15.2903 5.24015 15.5388 5.24015C15.7872 5.24015 16.0323 5.28939 16.2556 5.38412H16.3719C16.4473 5.40872 16.5287 5.41621 16.6083 5.40588C16.688 5.39554 16.7633 5.36773 16.8272 5.32506C16.8897 5.28236 16.9391 5.22693 16.9712 5.16367C17.0033 5.1004 17.0171 5.03123 17.0113 4.96224C17.0127 4.87822 17.0325 4.7952 17.0694 4.71756C17.156 4.55939 17.3084 4.43575 17.4956 4.37162C17.9151 4.24934 18.3722 4.27046 18.7744 4.43068C19.5009 4.70068 19.9369 5.27443 19.7431 5.69631C19.6899 5.80062 19.6023 5.88876 19.4913 5.94943C19.4362 5.98982 19.392 6.0402 19.3616 6.09704C19.3313 6.15388 19.3156 6.21581 19.3156 6.27849C19.3156 6.34118 19.3313 6.40311 19.3616 6.45995C19.392 6.51679 19.4362 6.56716 19.4913 6.60756C19.663 6.71856 19.7921 6.87238 19.8613 7.04866C19.9305 7.22495 19.9366 7.41538 19.8788 7.59474C19.8517 7.64551 19.8368 7.70054 19.8349 7.75647C19.833 7.81241 19.8442 7.8681 19.8678 7.92016C19.8913 7.97223 19.9268 8.01959 19.9719 8.05937C20.0171 8.09916 20.0711 8.13054 20.1306 8.15162C20.1912 8.16357 20.2541 8.16357 20.3147 8.15162C20.4095 8.15302 20.5026 8.12966 20.582 8.08454C20.6615 8.03943 20.7236 7.97463 20.7603 7.89849C20.8783 7.63019 20.9117 7.3393 20.8572 7.05596C20.8027 6.77261 20.6622 6.5071 20.4503 6.28693C20.5197 6.21615 20.5813 6.13989 20.6344 6.05912ZM11.1406 19.8291H18.8906V15.6104H11.1406V19.8291ZM12.1094 16.4541H17.9219V18.9854H12.1094V16.4541Z" fill="black"/>
</g>
</g>
<defs>
<filter id="filter0_d_43915_100" x="27.4236" y="4.6" width="67.714" height="32.075" filterUnits="userSpaceOnUse" color-interpolation-filters="sRGB">
<feFlood flood-opacity="0" result="BackgroundImageFix"/>
<feColorMatrix in="SourceAlpha" type="matrix" values="0 0 0 0 0 0 0 0 0 0 0 0 0 0 0 0 0 0 127 0" result="hardAlpha"/>
<feOffset dy="4"/>
<feGaussianBlur stdDeviation="2"/>
<feComposite in2="hardAlpha" operator="out"/>
<feColorMatrix type="matrix" values="0 0 0 0 0 0 0 0 0 0 0 0 0 0 0 0 0 0 0.25 0"/>
<feBlend mode="normal" in2="BackgroundImageFix" result="effect1_dropShadow_43915_100"/>
<feBlend mode="normal" in="SourceGraphic" in2="effect1_dropShadow_43915_100" result="shape"/>
</filter>
<clipPath id="clip0_43915_100">
<rect width="100" height="34" fill="white"/>
</clipPath>
<clipPath id="clip1_43915_100">
<rect width="31" height="27" fill="white"/>
</clipPath>
</defs>
</svg>
